<?xml version="1.0" standalone="no"?>
<!DOCTYPE svg PUBLIC "-//W3C//DTD SVG 20010904//EN"
 "http://www.w3.org/TR/2001/REC-SVG-20010904/DTD/svg10.dtd">
<svg version="1.0" xmlns="http://www.w3.org/2000/svg"
 width="1181.000000pt" height="1190.000000pt" viewBox="0 0 1181.000000 1190.000000"
 preserveAspectRatio="xMidYMid meet">

<g transform="translate(0.000000,1190.000000) scale(0.100000,-0.100000)"
fill="#000000" stroke="none">
<path d="M5430 10585 c-801 -75 -1538 -331 -2216 -771 -467 -302 -928 -737
-1255 -1184 -220 -300 -443 -693 -578 -1020 -331 -804 -444 -1697 -320 -2545
185 -1270 852 -2401 1874 -3180 608 -463 1345 -782 2125 -919 267 -47 446 -60
805 -60 300 0 376 3 530 22 699 86 1284 277 1866 607 1375 781 2286 2192 2434
3767 37 387 27 762 -30 1148 -118 806 -432 1560 -921 2212 -268 357 -609 699
-969 970 -340 256 -740 479 -1135 634 -441 173 -924 286 -1393 324 -170 13
-648 11 -817 -5z m1015 -189 c141 -21 340 -53 340 -56 0 -1 9 -3 20 -5 99 -17
405 -93 420 -105 6 -5 28 -11 50 -15 22 -4 54 -13 70 -20 17 -7 64 -25 105
-40 212 -78 240 -90 490 -215 240 -119 267 -134 341 -183 31 -20 59 -37 62
-37 8 0 196 -128 242 -165 22 -17 47 -34 55 -37 8 -3 63 -47 122 -97 60 -50
113 -91 119 -91 19 0 515 -505 580 -590 35 -47 78 -101 95 -120 18 -19 40 -49
50 -67 16 -26 90 -128 123 -168 4 -6 10 -15 12 -20 2 -6 20 -35 40 -65 124
-188 110 -164 255 -453 117 -233 136 -275 158 -339 9 -26 20 -56 25 -65 5 -10
21 -52 36 -93 14 -41 33 -91 40 -110 8 -19 17 -51 21 -70 3 -19 9 -39 13 -45
3 -5 6 -12 7 -15 0 -3 4 -12 7 -20 6 -13 33 -121 41 -160 2 -8 6 -22 9 -30 4
-8 13 -55 22 -105 9 -49 20 -99 24 -110 9 -20 25 -126 37 -245 4 -36 10 -69
14 -75 40 -52 38 -1163 -2 -1212 -5 -7 -9 -25 -7 -40 1 -15 -1 -39 -4 -53 -3
-14 -11 -68 -18 -120 -6 -52 -15 -99 -19 -105 -4 -5 -15 -55 -25 -110 -10 -55
-20 -104 -23 -110 -3 -5 -7 -16 -8 -25 -6 -38 -36 -148 -48 -175 -8 -16 -17
-46 -21 -65 -8 -44 -114 -333 -155 -425 -32 -73 -220 -449 -248 -497 -61 -105
-96 -162 -149 -241 -122 -179 -145 -212 -228 -314 -27 -34 -72 -90 -100 -125
-114 -143 -601 -618 -633 -618 -6 0 -19 -11 -30 -25 -11 -14 -23 -25 -27 -25
-3 0 -27 -18 -53 -39 -47 -39 -90 -70 -192 -139 -30 -20 -57 -39 -60 -42 -3
-3 -14 -10 -25 -17 -11 -7 -54 -33 -95 -59 -154 -96 -486 -269 -620 -324 -30
-12 -68 -28 -85 -36 -16 -7 -64 -25 -105 -40 -41 -15 -103 -37 -137 -50 -34
-13 -71 -24 -82 -24 -11 0 -23 -5 -26 -11 -4 -6 -13 -8 -20 -5 -7 2 -16 1 -21
-4 -17 -16 -264 -79 -459 -116 -136 -26 -267 -46 -445 -65 -141 -15 -810 -23
-824 -9 -5 5 -32 10 -59 10 -71 0 -339 30 -362 40 -11 5 -58 14 -105 20 -46 7
-89 14 -94 18 -6 3 -19 7 -30 8 -28 4 -217 49 -236 56 -8 3 -37 12 -65 18 -27
7 -54 16 -59 21 -5 4 -15 5 -22 2 -8 -3 -14 -1 -14 5 0 5 -18 12 -40 16 -22 3
-71 18 -108 32 -37 15 -76 30 -87 34 -94 36 -212 85 -222 93 -7 5 -13 7 -13 4
0 -5 -274 131 -428 212 -15 8 -85 51 -155 95 -70 45 -142 90 -160 100 -18 11
-60 41 -94 68 -35 26 -67 48 -73 48 -5 0 -10 5 -10 10 0 6 -8 14 -18 17 -9 4
-58 42 -109 85 -51 43 -97 78 -104 78 -14 0 -539 524 -539 539 0 6 -38 57 -85
114 -109 130 -105 125 -105 133 0 3 -17 27 -38 53 -34 41 -109 151 -152 222
-8 14 -39 64 -67 111 -29 47 -53 90 -53 96 0 6 -4 12 -8 14 -15 5 -206 397
-251 513 -24 61 -46 119 -51 130 -42 105 -70 187 -70 204 0 11 -4 22 -9 25 -5
3 -12 22 -16 42 -3 20 -11 48 -17 63 -7 14 -13 33 -14 41 -2 8 -12 53 -24 100
-11 47 -22 92 -23 100 -2 9 -6 20 -9 25 -3 6 -11 48 -18 95 -6 47 -16 93 -21
102 -5 10 -6 24 -3 33 4 8 2 21 -4 28 -5 6 -15 71 -22 142 -7 72 -18 136 -24
144 -12 16 -23 830 -11 858 4 10 7 42 5 71 -1 29 3 59 8 65 5 7 15 73 22 147
7 74 15 140 19 145 3 6 7 19 8 30 1 16 22 126 46 245 2 8 6 22 10 30 3 8 11
42 17 75 6 33 14 67 17 75 3 8 7 20 7 25 4 22 39 131 46 140 4 6 11 29 15 52
3 23 15 58 25 78 10 21 22 51 26 68 3 18 11 38 18 46 6 8 10 17 10 20 -4 20
77 206 177 406 55 110 104 207 109 215 5 8 30 51 56 95 26 44 73 120 105 168
33 48 59 90 59 93 0 3 4 10 10 17 39 47 120 157 120 162 0 4 11 16 25 27 14
11 25 24 25 30 0 32 506 578 567 611 11 7 66 51 121 100 55 48 104 87 109 87
6 0 19 11 29 25 10 14 23 25 28 25 5 0 27 15 50 34 43 34 205 146 213 146 2 0
33 20 69 46 36 25 75 49 87 55 12 5 45 23 72 39 52 31 206 113 215 115 3 1 50
24 105 52 113 57 182 87 305 134 47 17 94 35 105 39 11 5 50 20 88 34 37 14
75 26 85 26 9 0 29 6 43 14 14 7 59 21 100 30 41 10 83 21 94 26 11 5 65 19
120 30 55 12 109 23 120 26 11 2 70 12 130 20 61 9 119 20 130 25 11 4 74 13
140 19 66 6 136 12 155 14 19 2 226 2 460 0 307 -2 453 -7 525 -18z"/>
<path d="M5335 8245 c-91 -27 -137 -70 -134 -127 1 -18 3 -17 8 8 11 45 19 54
65 75 103 47 226 -2 226 -89 0 -16 -9 -89 -20 -162 -30 -201 -23 -213 23 -40
43 159 49 206 32 247 -16 38 -35 57 -75 75 -49 21 -86 25 -125 13z"/>
<path d="M2303 8210 c-18 -11 -33 -25 -33 -32 0 -7 -7 -60 -15 -118 -39 -272
-71 -631 -85 -965 -11 -254 -13 -1350 -3 -1794 l6 -301 23 -6 c31 -8 91 13
107 37 8 10 13 34 12 51 -2 18 -6 365 -10 771 -8 719 -7 737 11 737 46 -1 201
-42 296 -79 568 -222 968 -781 968 -1352 l0 -109 27 -6 c15 -4 44 -1 67 7 39
13 41 16 49 69 10 69 -7 270 -33 376 -87 366 -328 702 -665 929 -96 64 -291
157 -400 190 -152 46 -151 44 -38 81 561 181 986 621 1108 1148 20 87 36 285
28 343 -5 41 -7 43 -38 43 -18 0 -49 -7 -69 -15 l-36 -15 0 -103 c0 -268 -86
-534 -252 -785 -95 -143 -275 -324 -413 -415 -189 -125 -403 -208 -540 -211
l-70 -1 3 185 c4 202 25 601 42 775 18 175 50 445 60 504 7 38 7 58 -1 68 -17
19 -69 16 -106 -7z"/>
<path d="M5211 8060 c-1 -23 28 -160 46 -215 28 -87 52 -125 88 -141 43 -17
47 -17 71 1 18 14 17 14 -11 9 -49 -9 -75 25 -119 151 -53 155 -75 212 -75
195z"/>
<path d="M4935 7960 c-10 -16 13 -83 40 -120 31 -42 123 -106 172 -119 20 -6
39 -9 41 -6 8 8 -54 119 -91 161 -56 63 -146 110 -162 84z m151 -124 c107
-110 110 -145 3 -53 -33 28 -70 67 -81 85 -35 57 7 39 78 -32z"/>
<path d="M5729 7911 c-49 -30 -110 -114 -134 -182 -9 -23 -14 -44 -12 -45 8
-8 132 64 172 99 43 37 85 107 85 140 0 27 -59 21 -111 -12z m45 -43 c-32 -54
-141 -158 -166 -158 -17 0 27 61 84 116 31 30 64 54 73 54 10 0 13 -5 9 -12z"/>
<path d="M4698 7655 c-54 -30 -86 -156 -59 -228 12 -31 69 -97 84 -97 6 0 -1
12 -15 28 -54 55 -64 148 -25 217 33 58 54 60 245 33 89 -14 162 -21 162 -17
0 4 -10 10 -22 13 -214 62 -324 77 -370 51z"/>
<path d="M5835 7649 c-121 -26 -220 -65 -245 -96 -20 -26 -26 -78 -12 -100 5
-8 8 2 8 22 0 23 8 43 21 56 11 12 96 47 194 80 180 61 189 72 34 38z"/>
<path d="M6033 7659 c27 -16 57 -87 57 -137 0 -55 -20 -103 -56 -131 -24 -19
-36 -22 -69 -16 -108 18 -302 45 -315 44 -50 -2 283 -89 341 -89 41 0 95 41
114 87 19 45 19 124 1 168 -17 40 -59 85 -78 85 -7 0 -5 -5 5 -11z"/>
<path d="M5346 7621 c-3 -5 11 -11 32 -15 53 -8 93 -52 98 -108 9 -89 -90
-138 -176 -87 l-35 21 24 -26 c79 -84 231 -34 231 76 0 55 -33 106 -84 129
-44 20 -82 24 -90 10z"/>
<path d="M5165 7538 c8 -36 -27 -84 -72 -98 -94 -28 -303 -103 -300 -107 14
-13 298 65 344 94 30 20 56 88 43 113 -14 27 -22 25 -15 -2z"/>
<path d="M5090 7285 c-101 -55 -180 -144 -180 -205 0 -46 100 -10 163 59 49
54 112 182 89 181 -4 0 -36 -16 -72 -35z m24 -46 c-29 -42 -110 -119 -125
-119 -27 0 0 42 68 108 79 77 106 82 57 11z"/>
<path d="M5330 7301 c-12 -8 -8 -11 16 -11 43 0 81 -33 95 -82 18 -68 91 -269
96 -265 8 9 -26 162 -52 237 -15 41 -37 85 -49 98 -25 25 -83 38 -106 23z"/>
<path d="M5560 7289 c0 -20 62 -127 96 -168 58 -67 164 -106 164 -60 0 37 -43
110 -85 144 -62 50 -175 104 -175 84z m76 -47 c50 -36 125 -122 118 -133 -9
-15 -45 11 -102 70 -85 88 -92 118 -16 63z"/>
<path d="M5263 7155 c-36 -123 -53 -208 -53 -263 0 -48 4 -58 33 -87 99 -99
310 -37 305 89 l-1 41 -4 -40 c-7 -69 -58 -105 -148 -105 -59 0 -85 9 -122 43
-29 26 -29 54 -3 232 12 76 19 143 17 149 -2 6 -13 -20 -24 -59z"/>
<path d="M5339 6632 l-22 -19 19 -169 c16 -145 19 -258 21 -797 1 -345 5 -632
8 -637 9 -14 68 -12 88 3 16 11 18 54 24 502 6 482 -2 731 -29 985 -14 135
-20 150 -57 150 -16 0 -39 -8 -52 -18z"/>
<path d="M4130 6618 c-32 -22 -35 -28 -47 -108 -31 -211 -54 -407 -73 -610
-13 -141 -25 -760 -16 -832 l7 -58 137 0 c271 1 462 71 623 230 64 63 94 102
117 150 117 248 9 559 -230 662 -27 11 -48 23 -48 27 1 3 9 31 20 61 34 96 24
236 -23 327 -9 16 -37 49 -64 74 -68 64 -142 90 -268 96 -93 5 -103 3 -135
-19z m217 -110 c125 -58 185 -251 121 -389 -14 -30 -48 -78 -76 -107 -50 -49
-204 -152 -228 -152 -14 0 -12 41 17 305 40 366 43 377 91 369 18 -4 52 -15
75 -26z m284 -587 c77 -77 111 -140 134 -253 19 -87 19 -146 0 -226 -20 -85
-45 -130 -109 -199 -106 -114 -245 -174 -410 -176 l-101 -2 -7 125 c-4 69 -5
216 -1 328 l6 203 26 17 c14 10 55 33 91 52 85 43 197 120 240 165 19 19 40
35 48 35 8 0 45 -31 83 -69z"/>
<path d="M6275 6629 c-214 -11 -310 -23 -341 -44 -48 -31 -16 -37 139 -26 80
6 187 11 238 11 l92 0 -6 -122 c-10 -192 -36 -948 -40 -1206 -5 -256 -4 -262
54 -262 36 0 85 24 98 48 5 9 9 121 10 247 2 345 36 1269 48 1289 4 5 88 6
215 2 197 -6 212 -5 255 14 31 14 43 24 37 30 -24 24 -487 35 -799 19z"/>
<path d="M8693 6620 c-57 -12 -85 -28 -81 -48 3 -15 18 -17 108 -18 58 0 127
-6 153 -12 63 -16 187 -79 187 -95 0 -7 -21 -33 -46 -57 -168 -163 -326 -435
-400 -689 -71 -241 -71 -499 -1 -625 68 -125 254 -110 417 32 133 116 295 334
391 527 28 55 54 104 58 108 23 23 42 -225 40 -498 l-2 -240 33 -3 c40 -4 116
23 124 44 3 9 9 93 12 187 25 667 -143 1098 -507 1300 -147 82 -338 116 -486
87z m537 -312 c72 -86 143 -195 166 -259 l17 -46 -37 -109 c-98 -283 -260
-553 -451 -747 -77 -80 -104 -85 -142 -28 -39 58 -47 106 -47 286 0 143 3 184
22 260 60 240 165 448 325 643 33 39 66 72 73 72 7 0 41 -33 74 -72z"/>
<path d="M7449 6604 l-36 -15 -6 -367 c-6 -441 -26 -681 -92 -1105 -8 -54 -12
-103 -9 -109 7 -11 83 -2 120 14 13 6 26 18 28 27 16 53 72 468 86 636 l9 119
63 63 c61 62 230 197 262 209 11 4 28 -14 59 -63 91 -140 150 -288 181 -452
21 -109 21 -360 1 -456 -20 -92 -19 -94 11 -105 36 -14 98 4 122 35 29 37 47
169 46 340 -1 122 -6 171 -27 262 -42 183 -129 380 -219 494 -15 20 -28 41
-28 46 0 5 30 34 66 64 36 30 91 83 121 119 56 67 121 186 125 230 3 22 -1 25
-34 28 -44 4 -106 -21 -114 -45 -41 -121 -131 -244 -251 -344 -65 -55 -356
-269 -365 -269 -2 0 -1 148 1 330 l3 330 -43 -1 c-24 0 -60 -7 -80 -15z"/>
<path d="M8777 4322 c-22 -25 -21 -45 3 -67 17 -15 24 -16 45 -7 44 20 27 92
-23 92 -5 0 -16 -8 -25 -18z"/>
<path d="M2182 4149 c-81 -11 -116 -41 -93 -78 8 -13 16 -12 52 5 24 10 65 19
92 19 41 0 53 -4 73 -28 13 -15 24 -38 24 -51 0 -21 -6 -24 -62 -29 -96 -9
-139 -25 -180 -69 -31 -32 -38 -46 -38 -79 0 -51 23 -95 60 -114 42 -22 121
-19 173 6 l44 22 22 -22 c16 -16 32 -21 58 -19 41 3 56 26 24 35 -27 7 -30 21
-33 188 -3 115 -6 145 -21 166 -30 44 -99 61 -195 48z m146 -268 c4 -65 -17
-92 -84 -111 -56 -16 -97 -1 -115 41 -28 69 55 131 166 126 29 -2 30 -4 33
-56z"/>
<path d="M3541 4149 c-57 -11 -104 -48 -131 -104 -31 -63 -26 -202 8 -258 60
-95 208 -114 296 -36 52 45 69 101 64 204 -4 76 -7 89 -35 122 -53 66 -115 88
-202 72z m95 -65 c51 -24 69 -65 69 -154 0 -87 -19 -131 -65 -155 -58 -30
-127 -9 -156 48 -10 17 -19 61 -21 97 -5 77 14 122 66 157 40 27 61 29 107 7z"/>
<path d="M4068 4150 c-20 -4 -47 -14 -60 -22 -22 -14 -26 -14 -47 3 -51 42
-51 44 -51 -302 l0 -320 33 3 32 3 3 113 c1 61 5 112 8 112 2 0 17 -8 31 -17
17 -12 46 -18 82 -18 111 0 172 73 179 212 9 166 -74 258 -210 233z m89 -82
c14 -13 29 -34 35 -48 14 -37 11 -143 -5 -182 -31 -75 -104 -98 -168 -55 l-34
23 0 128 0 129 35 19 c44 24 102 19 137 -14z"/>
<path d="M4541 4149 c-118 -22 -183 -146 -152 -289 23 -106 83 -154 196 -154
103 0 161 36 135 85 -13 24 -12 24 -56 -6 -45 -30 -97 -32 -141 -5 -47 28 -67
73 -67 150 0 83 26 131 84 154 53 21 58 20 116 -9 27 -14 50 -25 51 -25 1 0 7
9 13 21 28 51 -77 96 -179 78z"/>
<path d="M5815 4149 c-76 -10 -107 -27 -103 -58 3 -29 12 -30 78 -6 83 31 152
5 166 -61 l6 -31 -64 -6 c-90 -8 -135 -24 -175 -61 -63 -57 -54 -164 17 -201
43 -22 125 -19 171 7 l39 22 23 -22 c31 -29 97 -31 97 -3 0 10 -9 21 -20 24
-19 5 -20 14 -20 139 0 73 -5 149 -10 169 -21 74 -89 103 -205 88z m143 -262
c4 -62 -14 -90 -72 -112 -51 -20 -86 -15 -116 15 -27 27 -25 62 5 99 28 32 83
51 145 48 34 -2 35 -3 38 -50z"/>
<path d="M6935 4153 c-54 -10 -66 -15 -96 -40 -48 -41 -69 -95 -69 -184 0
-100 32 -169 94 -201 108 -57 295 -3 248 70 -7 11 -17 8 -48 -13 -33 -23 -47
-26 -92 -23 -37 3 -60 11 -78 29 -29 26 -54 77 -54 109 0 19 6 20 145 20 l145
0 0 53 c0 65 -33 135 -75 158 -32 18 -88 28 -120 22z m74 -67 c30 -16 51 -53
51 -91 0 -25 0 -25 -105 -25 -119 0 -128 5 -101 62 29 61 96 84 155 54z"/>
<path d="M7410 4151 c-19 -4 -47 -15 -61 -24 -25 -16 -27 -16 -44 3 -10 11
-26 20 -37 20 -17 0 -18 -16 -18 -320 l0 -320 35 0 35 0 0 115 c0 63 3 115 8
115 4 0 17 -6 28 -14 50 -35 144 -28 199 16 45 36 65 91 65 189 0 96 -13 140
-56 182 -35 35 -93 49 -154 38z m71 -67 c41 -21 69 -84 69 -154 0 -136 -97
-210 -191 -147 l-34 23 0 124 0 124 34 23 c40 27 80 29 122 7z"/>
<path d="M7855 4149 c-71 -9 -105 -27 -105 -55 0 -32 14 -37 50 -19 77 40 169
24 191 -32 14 -39 5 -53 -36 -53 -71 0 -161 -30 -195 -65 -59 -61 -49 -164 20
-200 43 -22 125 -19 171 7 l39 22 24 -23 c17 -16 33 -22 57 -19 39 3 52 32 19
41 -19 5 -20 13 -20 120 0 209 -24 265 -117 276 -26 4 -70 3 -98 0z m143 -262
c4 -62 -14 -90 -72 -112 -51 -20 -86 -15 -116 15 -27 27 -25 62 5 99 28 32 83
51 145 48 34 -2 35 -3 38 -50z"/>
<path d="M9555 4153 c-53 -6 -115 -33 -115 -51 0 -38 15 -45 51 -26 21 11 57
18 92 18 52 1 61 -2 83 -27 13 -15 24 -39 24 -53 0 -22 -4 -24 -46 -24 -112 0
-217 -58 -230 -127 -10 -53 11 -110 49 -133 45 -28 127 -27 177 1 l38 22 28
-22 c35 -27 94 -29 94 -2 0 10 -9 21 -20 24 -19 5 -20 14 -20 139 0 163 -14
219 -63 241 -35 16 -96 24 -142 20z m133 -266 c4 -62 -14 -90 -72 -112 -51
-20 -86 -15 -116 15 -27 27 -25 62 5 99 28 32 83 51 145 48 34 -2 35 -3 38
-50z"/>
<path d="M2555 4138 c-3 -8 -4 -105 -3 -217 l3 -203 124 1 c76 1 136 7 156 15
41 18 65 56 65 107 0 33 -6 47 -31 70 l-31 29 26 31 c43 51 28 131 -31 158
-41 19 -272 26 -278 9z m244 -62 c27 -24 27 -68 0 -91 -16 -15 -37 -19 -97
-20 l-77 0 -3 54 c-5 82 -3 84 82 79 55 -2 80 -8 95 -22z m11 -186 c11 -11 20
-33 20 -50 0 -54 -28 -70 -125 -70 l-85 0 0 70 0 70 85 0 c72 0 88 -3 105 -20z"/>
<path d="M2993 4140 c-13 -5 -23 -18 -23 -29 0 -18 8 -20 73 -23 l72 -3 3
-182 2 -183 35 0 35 0 2 183 3 182 50 3 c81 4 97 10 93 35 -3 22 -6 22 -163
24 -88 1 -170 -2 -182 -7z"/>
<path d="M4830 3934 l0 -216 135 4 135 3 31 32 c25 24 33 42 36 80 8 97 -36
134 -169 142 l-93 6 -3 70 c-3 76 -13 95 -48 95 l-24 0 0 -216z m198 -10 c66
-13 93 -76 54 -124 -15 -19 -31 -24 -95 -28 -74 -4 -76 -4 -82 20 -3 13 -5 46
-3 73 3 43 6 50 28 56 34 9 62 10 98 3z"/>
<path d="M5270 3935 l0 -215 35 0 35 0 0 205 c0 192 -1 205 -19 215 -51 27
-51 26 -51 -205z"/>
<path d="M5533 4133 c-11 -10 -42 -46 -68 -81 -26 -35 -58 -68 -71 -74 -33
-15 -32 -53 2 -71 14 -8 56 -54 93 -103 60 -82 69 -89 104 -92 20 -2 37 0 37
4 0 15 -135 195 -157 210 l-25 16 34 36 c19 21 51 58 72 85 20 26 44 47 52 47
9 0 14 7 12 18 -5 24 -59 28 -85 5z"/>
<path d="M6360 3936 l0 -214 30 -4 c17 -3 32 -2 35 0 3 3 5 96 5 207 0 213 -3
225 -47 225 l-23 0 0 -214z"/>
<path d="M6598 4098 c-24 -29 -62 -72 -85 -96 -46 -48 -56 -86 -24 -95 11 -2
45 -40 76 -83 32 -44 66 -87 77 -96 20 -18 78 -25 78 -10 0 18 -123 183 -151
204 l-29 22 28 25 c15 15 43 48 62 74 19 27 48 56 63 64 23 12 26 17 16 29
-25 31 -66 17 -111 -38z"/>
<path d="M8226 4108 c-8 -64 -28 -379 -24 -383 1 -2 14 -5 28 -7 23 -3 25 1
31 47 4 28 10 98 14 157 4 60 11 106 16 103 4 -3 24 -40 43 -83 57 -123 59
-127 86 -127 26 0 45 30 105 169 15 35 29 56 35 50 5 -5 12 -76 17 -159 l8
-150 34 -3 34 -3 -6 68 c-4 37 -12 134 -18 216 l-12 147 -26 0 c-14 0 -32 -4
-38 -8 -7 -4 -37 -62 -68 -127 -30 -66 -58 -121 -62 -122 -5 -2 -24 32 -43 75
-71 160 -82 177 -117 180 -30 3 -32 2 -37 -40z"/>
<path d="M8779 4146 c-2 -2 -2 -97 1 -211 6 -228 4 -225 73 -225 43 0 50 19
15 42 -22 15 -23 22 -26 194 -2 106 -8 184 -14 191 -10 12 -40 18 -49 9z"/>
<path d="M9002 3933 l3 -217 30 0 30 0 3 197 c3 212 -2 237 -44 237 l-24 0 2
-217z"/>
<path d="M9263 4133 c-11 -10 -42 -46 -67 -81 -26 -34 -59 -70 -72 -78 -32
-21 -31 -51 2 -66 14 -7 57 -54 95 -105 64 -86 71 -93 104 -93 19 0 35 3 35 6
0 17 -143 203 -160 209 -23 7 -27 30 -6 38 8 3 38 35 66 71 28 36 60 68 71 71
12 4 19 14 17 23 -5 24 -60 27 -85 5z"/>
</g>
</svg>
